<svg xmlns="http://www.w3.org/2000/svg" viewBox="0 0 101.82 101.78"><defs><style>.cls-1{fill:#1daa99;}.cls-2{fill:#fc7572;}.cls-3{fill:#fff;}.cls-4{fill:#f44545;}</style></defs><title>Recurso 44</title><g id="Capa_2" data-name="Capa 2"><g id="Capa_1-2" data-name="Capa 1"><ellipse class="cls-1" cx="50.91" cy="50.89" rx="50.91" ry="50.89"/><path class="cls-2" d="M44.43,80.82l.89.09a1.48,1.48,0,0,0,1.61-1.32l4.39-44A1.48,1.48,0,0,0,50,34l-.89-.09a1.48,1.48,0,0,0-1.61,1.32l-4.39,44A1.48,1.48,0,0,0,44.43,80.82Z"/><path class="cls-2" d="M49.56,34.19S33.44,17.86,21.14,38.53C21.14,38.53,33.46,28,49.56,34.19Z"/><path class="cls-2" d="M49.56,33.94s17.27-15.11,28,6.39C77.58,40.33,66.06,28.91,49.56,33.94Z"/><path class="cls-3" d="M50.73,34.37s-22.64-12-23.7,17C27,51.34,33.06,34,50.73,34.37Z"/><path class="cls-4" d="M49.56,33.88s21.06-9.14,24.75,14.63C74.3,48.51,66.81,34.12,49.56,33.88Z"/><path class="cls-4" d="M49.56,33.79s-9-17.46-25-6.07A28.84,28.84,0,0,1,49.56,33.79Z"/><path class="cls-4" d="M49.6,33.81S43.9,18.62,27.22,22.45C27.22,22.45,53.21,14,49.6,33.81Z"/><path class="cls-4" d="M49.28,34.33s8.6-13.75,24.19-6.69C73.47,27.64,49.69,14.17,49.28,34.33Z"/><path class="cls-2" d="M57.76,81l.48.15a.84.84,0,0,0,1-.54l7.43-23.79a.84.84,0,0,0-.54-1l-.48-.15a.84.84,0,0,0-1,.54L57.22,80A.84.84,0,0,0,57.76,81Z"/><path class="cls-2" d="M65.91,55.85S58.87,45,49.73,55A16.53,16.53,0,0,1,65.91,55.85Z"/><path class="cls-2" d="M65.93,55.7s11.25-6.38,14.74,6.72A16.54,16.54,0,0,0,65.93,55.7Z"/><path class="cls-3" d="M66.53,56.08s-11.13-9.21-15,6.67C51.51,62.75,56.82,53.86,66.53,56.08Z"/><path class="cls-4" d="M65.94,55.67S78.6,53,77.93,66.56A16.54,16.54,0,0,0,65.94,55.67Z"/><path class="cls-4" d="M66,55.62S63,45,52.82,49.42A16.26,16.26,0,0,1,66,55.62Z"/><path class="cls-4" d="M66,55.64s-1.41-9-11.06-8.82C54.91,46.82,70.22,45.1,66,55.64Z"/><path class="cls-4" d="M65.74,55.89s6.31-6.61,14.12-.94C79.85,55,68.26,44.81,65.74,55.89Z"/></g></g></svg>