<svg xmlns="http://www.w3.org/2000/svg" width="18" height="18" viewBox="0 0 18 18">
  <path fill="#ff5029" d="M9,6c-2.8,0-5,2.2-5,5s2.2,5,5,5s5-2.2,5-5S11.8,6,9,6z M9,14.4c-2,0-3.6-1.6-3.6-3.6S7,7.2,9,7.2S12.6,8.8,12.6,11S11,14.4,9,14.4z"/>
  <path fill="#ff5029" d="M13.8,6.2c-0.2-0.2-0.5-0.2-0.7,0l-2.5,2.5c-0.8-0.3-1.8,0-2.5,0.8l-0.5,0.5c-0.8,0.8-1.1,1.9-0.8,2.9l-2.5,2.5c-0.2,0.2-0.2,0.5,0,0.7l0.5,0.5c0.2,0.2,0.5,0.2,0.7,0l2.5-2.5c0.8,0.3,1.8,0,2.5-0.8l0.5-0.5c0.8-0.8,1.1-1.9,0.8-2.9l2.5-2.5C14,6.7,14,6.4,13.8,6.2z M10,9c-0.2,0-0.3-0.1-0.4-0.1l-1,1c-0.2,0.2-0.5,0.2-0.7,0L7,10c-0.6,0-1.2-0.2-1.7-0.7c-0.9-0.9-0.9-2.4,0-3.3c0.9-0.9,2.4-0.9,3.3,0C9.8,6.8,10,7.4,10,8C10,8.1,10,9,10,9z M12.9,5.5L10,8c0-0.1,0-0.3,0-0.4c0-0.6-0.2-1.2-0.7-1.7c-0.9-0.9-2.4-0.9-3.3,0S5.2,7.4,6.1,8c0.1,0,0.3,0,0.4,0L5.5,12.9L9,9.4c0,0.1,0.1,0.3,0.1,0.4c0,0.6,0.2,1.2,0.7,1.7c0.9,0.9,2.4,0.9,3.3,0c0.9-0.9,0.9-2.4,0-3.3C12.8,9.4,12.9,9,12.9,8C12.9,7.9,12.9,7.1,12.9,5.5z"/>
</svg>