<svg xmlns="http://www.w3.org/2000/svg" width="30" height="30" viewBox="0 0 30 30">
  <path d="M14.293,7.293c-0.391,0.391-0.391,1.023,0,1.414l3,3c0.391,0.391,1.023,0.391,1.414,0s0.391-1.023,0-1.414L17.414,9H25c0.553,0,1-0.447,1-1s-0.447-1-1-1h-8.586l1.293-1.293c0.391-0.391,0.391-1.023,0-1.414s-1.023-0.391-1.414,0l-3,3C13.902,4.488,14,4.744,14,5s-0.098,0.512-0.293,0.707L9.414,10H5C4.447,10,4,10.447,4,11s0.447,1,1,1h4.586l-0.293,0.293C9.098,12.488,9,12.744,9,13c0,0.256,0.098,0.512,0.293,0.707l3,3c0.391,0.391,1.023,0.391,1.414,0s0.391-1.023,0-1.414L11.414,16H25c0.553,0,1-0.447,1-1s-0.447-1-1-1H11.586l1.293-1.293c0.391-0.391,0.391-1.023,0-1.414S12.902,10.488,12.511,10.707L9.207,14.011C9.098,14.119,9,14.256,9,14.414S9.098,14.709,9.207,14.817l3,3c0.391,0.391,1.023,0.391,1.414,0s0.391-1.023,0-1.414L11.414,17H25c0.553,0,1-0.447,1-1s-0.447-1-1-1H11.586l1.293-1.293C13.902,13.488,14,13.256,14,13s-0.098-0.512-0.293-0.707l-3-3C10.098,9.488,9.951,9.437,9.793,9.437S9.488,9.488,9.293,9.293L14.293,4.293C14.684,3.902,15.316,3.902,15.707,4.293S16.098,5.042,15.707,5.433L13.414,7.707C13.223,7.898,13.117,8.148,13.117,8.414S13.223,8.93,13.414,9.121L15.707,11.414C16.098,11.805,16.098,12.438,15.707,12.828S14.684,13.223,14.293,12.832L12.082,10.621C11.891,10.43,11.723,10.324,11.498,10.306S11.109,10.43,10.918,10.621L9.207,12.332C8.816,12.723,8.816,13.356,9.207,13.746S10.43,14.232,10.621,13.941L12.832,11.73C12.902,11.66,12.98,11.62,13.062,11.609S13.223,11.66,13.293,11.73L15.586,14.024C15.777,14.215,15.988,14.311,16.223,14.311S16.668,14.215,16.859,14.024L19.293,11.59C19.684,11.199,19.684,10.566,19.293,10.176S18.43,9.691,18.039,9.882L15.621,12.3C15.605,12.316,15.582,12.305,15.559,12.281C15.535,12.257,15.524,12.234,15.54,12.218L18.121,9.61C18.61,9.285,18.61,8.715,18.121,8.39S17.285,7.965,16.879,8.371L14.543,10.707C14.352,10.898,14.246,11.148,14.246,11.414S14.352,11.93,14.543,12.121l2.336,2.336C16.727,14.727,16.727,15.285,16.348,15.664c-0.138,0.138-0.362,0.138-0.5,0L13.879,13.5c-0.191-0.191-0.5-0.191-0.691,0S12.879,13.809,13.07,14l2.168,2.168c0.12,0.12,0.126,0.306,0.014,0.427C15.643,16.762,15.485,16.809,15.348,16.809z"/>
</svg>